# xmcd CD database file
#
# Track frame offsets:
#	150
#	13585
#	28925
#	48037
#	67542
#	90225
#	103672
#	119950
#	135465
#	160460
#	189985
#	209987
#
# Disc length: 3033 seconds
#
# Revision: 0
# Processed by: cddbd v1.5.1PL0 Copyright (c) Steve Scherf et al.
# Submitted via: CDex 1.51
#
DISCID=a10bd70c
DTITLE=NEWROTE'KA - がむしゃら
DYEAR=1900
DGENRE=Punk Rock
TTITLE0=ブルドッギングボーイ〜DYNAMITE KID THE END〜
TTITLE1=こんなもんじゃねえだろう?
TTITLE2=TOKYO CHATTERLEY
TTITLE3=マッスルファイト
TTITLE4=中華そばBoogie
TTITLE5=GOLD FINGER
TTITLE6=A・T・K・T
TTITLE7=並じゃねぇ
TTITLE8=憧れのRock'n Roll航路
TTITLE9=修豚愛歌
TTITLE10=こんなもんじゃねえだろう?
TTITLE11=裏A・T・K・Ｔ
EXTD=
EXTT0=
EXTT1=
EXTT2=
EXTT3=
EXTT4=
EXTT5=
EXTT6=
EXTT7=
EXTT8=
EXTT9=
EXTT10=
EXTT11=
PLAYORDER=
